<?xml version="1.0" standalone="no"?>
<!DOCTYPE svg PUBLIC "-//W3C//DTD SVG 20010904//EN"
 "http://www.w3.org/TR/2001/REC-SVG-20010904/DTD/svg10.dtd">
<svg version="1.0" xmlns="http://www.w3.org/2000/svg"
 width="1000.000000pt" height="1000.000000pt" viewBox="0 0 1000.000000 1000.000000"
 preserveAspectRatio="xMidYMid meet">
<metadata>
Created by potrace 1.11, written by Peter Selinger 2001-2013
</metadata>
<g transform="translate(0.000000,1000.000000) scale(0.100000,-0.100000)"
fill="#000000" stroke="none">
<path d="M510 5000 l0 -4490 4490 0 4490 0 0 4490 0 4490 -4490 0 -4490 0 0
-4490z m8615 0 l0 -4125 -4125 0 -4125 0 -3 4115 c-1 2263 0 4121 3 4128 3 10
834 12 4127 10 l4123 -3 0 -4125z"/>
<path d="M1130 5000 l0 -3870 3870 0 3870 0 0 3870 0 3870 -3870 0 -3870 0 0
-3870z m3180 3035 l0 -265 -815 0 -815 0 0 -305 0 -305 745 0 745 0 0 -245 0
-245 -745 0 -745 0 0 -350 0 -350 830 0 830 0 0 -265 0 -265 -1170 0 -1170 0
0 1430 0 1430 1155 0 1155 0 0 -265z m2060 -185 c151 -247 278 -449 281 -450
3 0 134 201 290 446 156 246 288 448 294 450 5 2 162 3 347 2 l337 -3 -450
-670 c-248 -368 -453 -675 -456 -682 -2 -6 219 -345 491 -753 273 -408 496
-743 496 -746 0 -2 -168 -4 -374 -4 l-374 0 -309 490 c-169 269 -311 490 -314
490 -3 0 -106 -156 -229 -347 -124 -192 -266 -412 -317 -490 l-92 -143 -351 0
c-192 0 -350 2 -350 5 0 3 223 340 495 750 l496 746 -460 679 -459 680 366 0
367 0 275 -450z m665 -3189 c101 -22 245 -71 320 -108 329 -165 547 -467 599
-830 l6 -43 -302 0 -303 0 -24 76 c-46 147 -150 271 -277 334 -101 49 -174 64
-314 64 -186 -1 -306 -39 -437 -138 -202 -153 -323 -465 -323 -832 0 -221 35
-385 116 -553 49 -100 66 -124 142 -201 145 -145 284 -199 515 -200 149 0 250
20 353 70 155 76 264 227 305 423 10 51 19 98 19 105 0 9 -70 12 -315 12
l-315 0 0 235 0 235 600 0 600 0 0 -775 0 -775 -199 0 c-150 0 -200 3 -203 13
-3 6 -18 78 -34 160 l-28 148 -55 -62 c-125 -140 -277 -233 -466 -286 -94 -26
-112 -28 -290 -27 -211 0 -315 16 -482 75 -448 158 -751 525 -865 1049 -20 94
-23 131 -22 355 0 280 11 357 80 567 72 219 175 389 334 549 210 213 460 335
780 379 107 15 382 4 485 -19z m-2695 -366 l0 -265 -425 0 -425 0 0 -1165 0
-1165 -320 0 -320 0 0 1165 0 1165 -425 0 -425 0 0 265 0 265 1170 0 1170 0 0
-265z"/>
</g>
</svg>
